<?xml version="1.0" encoding="UTF-8"?>
<svg version="1.1" xmlns="http://www.w3.org/2000/svg" width="50" height="47">
<path d="M0 0 C1.06468506 0.00241699 1.06468506 0.00241699 2.15087891 0.00488281 C7.93646506 0.14038908 11.51440229 1.01036965 16.1875 4.375 C16.87000307 5.70029687 17.53841887 7.03301792 18.1875 8.375 C18.826875 8.66375 19.46625 8.9525 20.125 9.25 C23.24785897 10.95337762 23.84876422 13.12538717 25.1875 16.375 C25.95033621 22.74571321 26.5137102 29.94338612 23.375 35.75 C21.1875 38.375 21.1875 38.375 18.1875 39.375 C17.960625 38.59125 17.73375 37.8075 17.5 37 C16.417495 34.25971107 16.417495 34.25971107 14.0625 33.0625 C7.457183 31.48296767 3.01238089 31.88007147 -2.8125 35.375 C-2.8125 36.365 -2.8125 37.355 -2.8125 38.375 C-2.1525 37.715 -1.4925 37.055 -0.8125 36.375 C6.32419065 35.68435252 6.32419065 35.68435252 9.6875 38.375 C10.43 39.365 10.43 39.365 11.1875 40.375 C9.93773244 44.02816671 9.51651247 45.15565836 6.1875 47.375 C-0.71989504 48.12981064 -7.95428789 48.46166536 -14.06640625 44.78125 C-19.54955235 40.36529341 -24.40027074 35.14147369 -25.18359375 27.984375 C-25.31596393 20.29133154 -25.36680762 14.23556017 -19.8125 8.375 C-13.78895644 2.2691301 -8.68878689 -0.02031514 0 0 Z M5.1875 21.375 C9.1875 22.375 9.1875 22.375 9.1875 22.375 Z M15.1875 21.375 C19.1875 22.375 19.1875 22.375 19.1875 22.375 Z M20.1875 22.375 C22.1675 23.365 22.1675 23.365 24.1875 24.375 C23.8575 23.715 23.5275 23.055 23.1875 22.375 C22.1975 22.375 21.2075 22.375 20.1875 22.375 Z " fill="#0565F6" transform="translate(24.8125,-0.375)"/>
<path d="M0 0 C1.06468506 0.00241699 1.06468506 0.00241699 2.15087891 0.00488281 C7.93646506 0.14038908 11.51440229 1.01036965 16.1875 4.375 C17.3828125 6.515625 17.3828125 6.515625 18.1875 8.375 C17.44886719 8.32859375 16.71023437 8.2821875 15.94921875 8.234375 C5.60017384 7.86617518 -3.05472873 10.08626021 -11.15234375 16.75390625 C-15.36496746 20.8674094 -17.02910348 24.5304537 -17.3125 30.4375 C-17.10710901 35.09775066 -15.99548215 37.84791167 -12.8125 41.375 C-9.02428355 44.62204267 -5.68612456 44.70029159 -0.8984375 44.67578125 C1.49001446 44.48407625 1.49001446 44.48407625 4.1875 42.375 C4.5175 41.385 4.8475 40.395 5.1875 39.375 C3.5375 39.375 1.8875 39.375 0.1875 39.375 C0.1875 40.035 0.1875 40.695 0.1875 41.375 C-1.2975 40.88 -1.2975 40.88 -2.8125 40.375 C-2.1525 39.055 -1.4925 37.735 -0.8125 36.375 C6.57211538 35.88269231 6.57211538 35.88269231 9.6875 38.375 C10.43 39.365 10.43 39.365 11.1875 40.375 C9.93773244 44.02816671 9.51651247 45.15565836 6.1875 47.375 C-0.71989504 48.12981064 -7.95428789 48.46166536 -14.06640625 44.78125 C-19.54955235 40.36529341 -24.40027074 35.14147369 -25.18359375 27.984375 C-25.31596393 20.29133154 -25.36680762 14.23556017 -19.8125 8.375 C-13.78895644 2.2691301 -8.68878689 -0.02031514 0 0 Z " fill="#0301C5" transform="translate(24.8125,-0.375)"/>
<path d="M0 0 C0.598125 0.474375 1.19625 0.94875 1.8125 1.4375 C1.56068536 7.21664605 1.25134891 11.26767224 -3.1875 15.4375 C-3.8475 15.4375 -4.5075 15.4375 -5.1875 15.4375 C-5.414375 14.65375 -5.64125 13.87 -5.875 13.0625 C-6.957505 10.32221107 -6.957505 10.32221107 -9.3125 9.125 C-14.54655485 7.87337819 -18.59918636 7.88880983 -23.625 9.625 C-26.41012939 11.21210018 -26.41012939 11.21210018 -27.0625 14.125 C-27.10375 14.888125 -27.145 15.65125 -27.1875 16.4375 C-25.2075 16.4375 -23.2275 16.4375 -21.1875 16.4375 C-21.1875 17.0975 -21.1875 17.7575 -21.1875 18.4375 C-25.21922323 19.38614076 -27.37154153 19.85415964 -31.125 17.9375 C-33.1875 15.4375 -33.1875 15.4375 -33.8125 12.0625 C-33.05775343 7.68496992 -31.60324436 5.16694007 -28.1875 2.4375 C-19.46321303 -2.51625426 -9.34445561 -4.5806155 0 0 Z " fill="#1CCDF8" transform="translate(48.1875,23.5625)"/>
<path d="M0 0 C0.33 0 0.66 0 1 0 C1.2475 1.216875 1.495 2.43375 1.75 3.6875 C2.89873167 8.25815769 4.69808338 11.60814344 8.84765625 14.1171875 C11.24272633 15.09955744 12.98304295 15.26745825 15.5625 15.25 C16.70912109 15.25773437 16.70912109 15.25773437 17.87890625 15.265625 C20.29982762 15.1229561 20.29982762 15.1229561 23 13 C23.33 12.01 23.66 11.02 24 10 C22.35 10 20.7 10 19 10 C19 10.66 19 11.32 19 12 C18.01 11.67 17.02 11.34 16 11 C16.66 9.68 17.32 8.36 18 7 C25.38461538 6.50769231 25.38461538 6.50769231 28.5 9 C28.995 9.66 29.49 10.32 30 11 C28.75023244 14.65316671 28.32901247 15.78065836 25 18 C18.02366377 18.76234424 10.86329146 19.04230977 4.6875 15.35546875 C1.67979455 12.93955719 -0.70926179 10.08902577 -3 7 C-2.34 7 -1.68 7 -1 7 C-0.67 4.69 -0.34 2.38 0 0 Z " fill="#0608B6" transform="translate(6,29)"/>
<path d="M0 0 C1.67542976 0.28604898 3.34385343 0.61781233 5 1 C4.6875 2.875 4.6875 2.875 4 5 C0.79619983 7.13586678 -0.01939967 7.23132175 -3.6875 7.125 C-4.89986328 7.09792969 -4.89986328 7.09792969 -6.13671875 7.0703125 C-7.05904297 7.03550781 -7.05904297 7.03550781 -8 7 C-7.34 6.67 -6.68 6.34 -6 6 C-5.67 5.34 -5.34 4.68 -5 4 C-2.69 4 -0.38 4 2 4 C2 3.34 2 2.68 2 2 C1.01 1.67 0.02 1.34 -1 1 C-0.67 0.67 -0.34 0.34 0 0 Z " fill="#0962EB" transform="translate(25,38)"/>
<path d="M0 0 C0.66 0.33 1.32 0.66 2 1 C0.71451591 2.33929505 -0.57858155 3.67128643 -1.875 5 C-2.59429688 5.7425 -3.31359375 6.485 -4.0546875 7.25 C-6 9 -6 9 -8 9 C-6.4169423 4.7257442 -3.49431596 2.73468206 0 0 Z " fill="#0E63E6" transform="translate(18,13)"/>
<path d="M0 0 C2 1.375 2 1.375 4 3 C4 3.66 4 4.32 4 5 C-1.28 5 -6.56 5 -12 5 C-8.96474514 2.97649676 -7.80573798 2.67875982 -4.3125 2.375 C-3.50425781 2.30023438 -2.69601563 2.22546875 -1.86328125 2.1484375 C-1.24839844 2.09945313 -0.63351563 2.05046875 0 2 C0 1.34 0 0.68 0 0 Z " fill="#0A08A9" transform="translate(39,3)"/>
</svg>
